<svg width="16" height="16" viewBox="0 0 16 16" fill="none" xmlns="http://www.w3.org/2000/svg">
<path d="M14.9812 8.64194H14.1195V15.2423C14.1195 15.6632 13.7678 16 13.3282 16H10.2684C10.0047 16 9.77607 15.7811 9.77607 15.5285V10.814C9.77607 10.5783 9.58263 10.3762 9.31886 10.3762H6.68114C6.43495 10.3762 6.22393 10.5614 6.22393 10.814V15.5285C6.22393 15.7811 5.99533 16 5.73156 16H2.6718C2.23218 16 1.88048 15.6632 1.88048 15.2423V8.64194H1.01883C0.104416 8.64194 -0.335205 7.598 0.297849 6.97501L7.27902 0.29045C7.68347 -0.0968166 8.31653 -0.0968166 8.72098 0.29045L15.7022 6.97501C16.3352 7.58116 15.8956 8.64194 14.9812 8.64194Z" fill="#333333"/>
</svg>
