<svg width="16" height="11" viewBox="0 0 16 11" fill="none" xmlns="http://www.w3.org/2000/svg">
<path d="M1.06667 0C0.475733 0 0 0.475731 0 1.06667V9.06667C0 9.6576 0.475733 10.1333 1.06667 10.1333H14.9333C15.5243 10.1333 16 9.6576 16 9.06667V1.06667C16 0.475731 15.5243 0 14.9333 0H1.06667ZM2.60832 1.59167C2.61943 1.59132 2.63055 1.59132 2.64165 1.59167C2.71369 1.5889 2.78554 1.60076 2.85286 1.62655C2.92018 1.65233 2.98157 1.69149 3.03333 1.74167L7.50832 5.95832C7.72107 6.1588 8.26955 6.15928 8.48333 5.95832L12.9667 1.74167C13.0694 1.64442 13.2066 1.59198 13.3481 1.59588C13.4895 1.59979 13.6236 1.65973 13.7208 1.7625C13.8181 1.86527 13.8705 2.00246 13.8666 2.1439C13.8627 2.28533 13.8028 2.41942 13.7 2.51667L11.075 4.98333L13.7083 7.61667C13.7598 7.66552 13.8011 7.72415 13.8296 7.78914C13.8581 7.85413 13.8734 7.92418 13.8746 7.99515C13.8757 8.06612 13.8627 8.13661 13.8362 8.20247C13.8097 8.26834 13.7704 8.32826 13.7205 8.37873C13.6706 8.4292 13.6111 8.4692 13.5455 8.49639C13.48 8.52357 13.4096 8.53739 13.3386 8.53704C13.2677 8.5367 13.1975 8.52218 13.1322 8.49435C13.0669 8.46653 13.0078 8.42594 12.9583 8.37498L10.2917 5.70832L9.20832 6.73333C8.52672 7.37408 7.4564 7.37565 6.77499 6.73333L5.7 5.71667L3.04165 8.37498C2.99224 8.42594 2.93315 8.46653 2.86785 8.49435C2.80255 8.52218 2.73235 8.5367 2.66137 8.53704C2.59038 8.53739 2.52005 8.52357 2.45448 8.49639C2.3889 8.4692 2.32942 8.4292 2.27951 8.37873C2.22959 8.32826 2.19025 8.26834 2.1638 8.20247C2.13734 8.13661 2.1243 8.06612 2.12543 7.99515C2.12656 7.92418 2.14185 7.85413 2.1704 7.78914C2.19895 7.72415 2.24018 7.66552 2.29168 7.61667L4.92501 4.98333L2.3 2.51667C2.22374 2.44711 2.1693 2.3569 2.14329 2.25701C2.11728 2.15713 2.1208 2.05184 2.15344 1.95392C2.18608 1.856 2.24643 1.76966 2.32717 1.70535C2.40791 1.64105 2.50558 1.60156 2.60832 1.59167Z" fill="#333333"/>
</svg>
