<svg width="16" height="17" viewBox="0 0 16 17" fill="none" xmlns="http://www.w3.org/2000/svg">
<path d="M8 0.187378C3.58737 0.187378 0 3.77475 0 8.18738C0 12.6 3.58737 16.1874 8 16.1874C12.4126 16.1874 16 12.6 16 8.18738C16 3.77475 12.4126 0.187378 8 0.187378ZM12.3958 11.1516C12.2442 11.5221 11.9747 11.8926 11.8063 12.0611C10.8463 13.0211 8.26947 12.1621 6.14737 10.04C4.02526 7.9179 3.16632 5.3579 4.12632 4.38106C4.29474 4.21264 4.68211 3.94317 5.03579 3.79159C5.30526 3.67369 5.62526 3.7579 5.81053 3.99369L6.87158 5.34106C7.09053 5.61054 7.05684 6.01475 6.78737 6.25054C6.51789 6.48633 6.33263 6.65475 6.28211 6.70527C5.87789 7.10948 6.46737 7.96843 7.36 8.86106C8.25263 9.75369 9.09474 10.36 9.51579 9.93896C9.56632 9.88843 9.73474 9.70317 9.97053 9.43369C10.2063 9.16422 10.5937 9.13054 10.88 9.34948L12.2274 10.4105C12.4463 10.5453 12.5137 10.8653 12.3958 11.1516Z" fill="#333333"/>
</svg>
