<?xml version="1.0" encoding="UTF-8" standalone="no"?><!-- Generator: Gravit.io --><svg xmlns="http://www.w3.org/2000/svg" xmlns:xlink="http://www.w3.org/1999/xlink" style="isolation:isolate" viewBox="0 0 70 110" width="70pt" height="110pt"><defs><clipPath id="_clipPath_ytv8nwJai7LvhvbLrPuBhaWcStrTU2oA"><rect width="70" height="110"/></clipPath></defs><g clip-path="url(#_clipPath_ytv8nwJai7LvhvbLrPuBhaWcStrTU2oA)"><g><path d=" M 35.003 0 C 15.237 0.078 -0.247 15.188 0.003 35 C 0.253 54.813 15.054 62.008 25.003 80 Q 30.065 87.75 35.003 110 Q 37.005 94.581 45.003 80 C 54.736 62.256 70.003 54.813 70.003 35 C 70.003 15.188 54.769 -0.078 35.003 0 Z " fill="rgb(113,113,113)"/><circle vector-effect="non-scaling-stroke" cx="35.00298491358916" cy="35.000000000000014" r="30.000000000000004" fill="rgb(255,255,255)"/><g><path d=" M 57.712 21.05 L 12.294 21.05 C 9.52 21.05 8.938 21.665 8.938 24.601 L 8.938 45.399 C 8.938 48.334 9.519 48.95 12.294 48.95 L 57.712 48.95 C 60.487 48.95 61.068 48.334 61.068 45.399 L 61.068 24.601 C 61.068 21.665 60.486 21.05 57.712 21.05 Z  M 21.58 29.39 C 21.58 27.922 21.871 27.614 23.258 27.614 L 27.796 27.614 C 29.184 27.614 29.474 27.922 29.474 29.39 L 29.474 34.045 C 29.474 35.512 29.184 35.821 27.796 35.821 L 23.258 35.821 C 21.871 35.821 21.58 35.512 21.58 34.045 L 21.58 29.39 Z  M 12.102 29.39 C 12.102 27.922 12.392 27.614 13.78 27.614 L 18.317 27.614 C 19.704 27.614 19.995 27.922 19.995 29.39 L 19.995 34.045 C 19.995 35.512 19.704 35.821 18.317 35.821 L 13.781 35.821 C 12.392 35.821 12.103 35.512 12.103 34.045 L 12.103 29.39 L 12.102 29.39 Z  M 38.952 43.892 C 38.952 45.36 38.662 45.667 37.274 45.667 L 13.776 45.667 C 12.389 45.667 12.097 45.36 12.097 43.892 L 12.097 39.238 C 12.097 37.769 12.389 37.462 13.776 37.462 L 37.274 37.462 C 38.662 37.462 38.952 37.769 38.952 39.238 L 38.952 43.892 Z  M 38.952 34.045 C 38.952 35.512 38.662 35.821 37.274 35.821 L 32.737 35.821 C 31.349 35.821 31.059 35.512 31.059 34.045 L 31.059 29.39 C 31.059 27.922 31.349 27.614 32.737 27.614 L 37.274 27.614 C 38.662 27.614 38.952 27.922 38.952 29.39 L 38.952 34.045 Z  M 48.43 43.892 C 48.43 45.36 48.14 45.667 46.752 45.667 L 42.215 45.667 C 40.827 45.667 40.537 45.36 40.537 43.892 L 40.537 39.238 C 40.537 37.769 40.827 37.462 42.215 37.462 L 46.752 37.462 C 48.14 37.462 48.43 37.769 48.43 39.238 L 48.43 43.892 Z  M 57.909 43.892 C 57.909 45.36 57.618 45.667 56.231 45.667 L 51.692 45.667 C 50.305 45.667 50.015 45.36 50.015 43.892 L 50.015 39.238 C 50.015 37.769 50.305 37.462 51.692 37.462 L 56.231 37.462 C 57.618 37.462 57.909 37.769 57.909 39.238 L 57.909 43.892 Z  M 57.909 34.045 C 57.909 35.512 57.618 35.821 56.231 35.821 L 42.215 35.821 C 40.827 35.821 40.537 35.512 40.537 34.045 L 40.537 29.39 C 40.537 27.922 40.827 27.614 42.215 27.614 L 56.231 27.614 C 57.618 27.614 57.909 27.922 57.909 29.39 L 57.909 34.045 Z " fill="rgb(113,113,113)"/></g></g></g></svg>